<?xml version="1.0" encoding="UTF-8" standalone="no"?>
<svg
   xmlns:dc="http://purl.org/dc/elements/1.1/"
   xmlns:cc="http://creativecommons.org/ns#"
   xmlns:rdf="http://www.w3.org/1999/02/22-rdf-syntax-ns#"
   xmlns:svg="http://www.w3.org/2000/svg"
   xmlns="http://www.w3.org/2000/svg"
   xmlns:sodipodi="http://sodipodi.sourceforge.net/DTD/sodipodi-0.dtd"
   xmlns:inkscape="http://www.inkscape.org/namespaces/inkscape"
   width="21.105894mm"
   height="28.078903mm"
   viewBox="0 0 21.105894 28.078903"
   version="1.1"
   id="svg8"
   inkscape:version="1.0.1 (3bc2e813f5, 2020-09-07)"
   sodipodi:docname="tpdlogosimple.svg">
  <defs
     id="defs2" />
  <sodipodi:namedview
     id="base"
     pagecolor="#ffffff"
     bordercolor="#666666"
     borderopacity="1.0"
     inkscape:pageopacity="0.0"
     inkscape:pageshadow="2"
     inkscape:zoom="1"
     inkscape:cx="176.64789"
     inkscape:cy="268.41071"
     inkscape:document-units="mm"
     inkscape:current-layer="layer1"
     inkscape:document-rotation="0"
     showgrid="false"
     inkscape:window-width="1920"
     inkscape:window-height="1017"
     inkscape:window-x="-8"
     inkscape:window-y="-8"
     inkscape:window-maximized="1" />
  <metadata
     id="metadata5">
    <rdf:RDF>
      <cc:Work
         rdf:about="">
        <dc:format>image/svg+xml</dc:format>
        <dc:type
           rdf:resource="http://purl.org/dc/dcmitype/StillImage" />
        <dc:title></dc:title>
      </cc:Work>
    </rdf:RDF>
  </metadata>
  <g
     inkscape:label="Layer 1"
     inkscape:groupmode="layer"
     id="layer1"
     transform="translate(-51.42233,-77.149667)">
    <g
       aria-label="TRE
PER
DAY"
       id="text12"
       style="font-weight:300;font-size:12.7px;line-height:0;font-family:Roboto;-inkscape-font-specification:'Roboto Light';stroke-width:0.264583"
       inkscape:export-xdpi="96"
       inkscape:export-ydpi="96">
      <path
         d="m 58.367642,77.800791 h -3.094385 v 8.377783 H 54.510513 V 77.800791 H 51.42233 v -0.651124 h 6.945312 z"
         style="line-height:0.75;text-align:start;letter-spacing:-0.767292px;text-anchor:start;stroke-width:0.264583"
         id="path31" />
      <path
         d="m 62.431063,82.420664 h -2.623096 v 3.75791 h -0.768945 v -9.028907 h 2.933154 q 1.444873,0 2.257227,0.700733 0.812353,0.700732 0.812353,1.95957 0,0.868164 -0.508496,1.53169 -0.508496,0.663525 -1.364258,0.917773 l 2.257227,3.838525 v 0.08062 H 64.613875 Z M 59.807967,81.76954 h 2.337842 q 0.961182,0 1.544092,-0.545703 0.58291,-0.545703 0.58291,-1.413867 0,-0.95498 -0.607715,-1.48208 -0.607715,-0.527099 -1.705322,-0.527099 h -2.151807 z"
         style="line-height:0.75;text-align:start;letter-spacing:-0.767292px;text-anchor:start;stroke-width:0.264583"
         id="path33" />
      <path
         d="m 71.337599,81.850156 h -4.222998 v 3.683496 h 4.855517 v 0.644922 h -5.618261 v -9.028907 h 5.587256 v 0.651124 h -4.824512 v 3.404443 h 4.222998 z"
         style="line-height:0.75;text-align:start;letter-spacing:-0.767292px;text-anchor:start;stroke-width:0.264583"
         id="path35" />
      <path
         d="m 53.003629,92.026279 v 3.677294 h -0.762745 v -9.028906 h 3.075782 q 1.407666,0 2.220019,0.719336 0.818555,0.719336 0.818555,1.978174 0,1.27124 -0.787549,1.965772 -0.781348,0.68833 -2.269629,0.68833 z m 0,-0.644922 h 2.313037 q 1.110009,0 1.692919,-0.5271 0.582911,-0.527099 0.582911,-1.469678 0,-0.936377 -0.582911,-1.488281 -0.576708,-0.558105 -1.64331,-0.570508 h -2.362646 z"
         style="line-height:0.75;text-align:start;letter-spacing:-0.767292px;text-anchor:start;stroke-width:0.264583"
         id="path37" />
      <path
         d="m 64.279012,91.375156 h -4.222998 v 3.683496 h 4.855518 v 0.644921 H 59.29327 v -9.028906 h 5.587256 v 0.651123 h -4.824512 v 3.404444 h 4.222998 z"
         style="line-height:0.75;text-align:start;letter-spacing:-0.767292px;text-anchor:start;stroke-width:0.264583"
         id="path39" />
      <path
         d="m 69.12378,91.945663 h -2.623095 v 3.75791 h -0.768946 v -9.028906 h 2.933155 q 1.444873,0 2.257226,0.700733 0.812354,0.700732 0.812354,1.95957 0,0.868164 -0.508496,1.531689 -0.508496,0.663526 -1.364258,0.917774 l 2.257226,3.838525 v 0.08062 H 71.306593 Z M 66.500685,91.29454 h 2.337841 q 0.961182,0 1.544092,-0.545703 0.58291,-0.545703 0.58291,-1.413867 0,-0.95498 -0.607714,-1.48208 -0.607715,-0.5271 -1.705323,-0.5271 h -2.151806 z"
         style="line-height:0.75;text-align:start;letter-spacing:-0.767292px;text-anchor:start;stroke-width:0.264583"
         id="path41" />
      <path
         d="m 52.240884,105.22857 v -9.028903 h 2.523877 q 1.11001,0 1.990576,0.508496 0.880567,0.502295 1.370459,1.444873 0.496094,0.942578 0.496094,2.145604 v 0.83096 q 0,1.20923 -0.489892,2.1456 -0.489893,0.93638 -1.382862,1.44488 -0.886767,0.50849 -2.040185,0.50849 z m 0.762745,-8.37778 v 7.73286 h 1.711523 q 1.426269,0 2.288232,-0.94258 0.861963,-0.94878 0.861963,-2.56108 v -0.79375 q 0,-1.556495 -0.84956,-2.492872 -0.849561,-0.936377 -2.238623,-0.942578 z"
         style="line-height:0.75;text-align:start;letter-spacing:-0.767292px;text-anchor:start;stroke-width:0.264583"
         id="path43" />
      <path
         d="m 64.53326,102.6985 h -4.098974 l -0.930176,2.53007 h -0.799951 l 3.416845,-9.028903 h 0.725538 l 3.416845,9.028903 h -0.79375 z m -3.86333,-0.65113 h 3.621485 l -1.810743,-4.917527 z"
         style="line-height:0.75;text-align:start;letter-spacing:-0.767292px;text-anchor:start;stroke-width:0.264583"
         id="path45" />
      <path
         d="m 68.888136,101.1234 2.759522,-4.923733 h 0.880566 l -3.261816,5.630663 v 3.39824 h -0.762744 v -3.39824 l -3.255616,-5.630663 h 0.905371 z"
         style="line-height:0.75;text-align:start;letter-spacing:-0.767292px;text-anchor:start;stroke-width:0.264583"
         id="path47" />
    </g>
  </g>
</svg>
