<?xml version="1.0" encoding="UTF-8" standalone="no"?>
<svg
   xmlns:dc="http://purl.org/dc/elements/1.1/"
   xmlns:cc="http://creativecommons.org/ns#"
   xmlns:rdf="http://www.w3.org/1999/02/22-rdf-syntax-ns#"
   xmlns:svg="http://www.w3.org/2000/svg"
   xmlns="http://www.w3.org/2000/svg"
   xmlns:sodipodi="http://sodipodi.sourceforge.net/DTD/sodipodi-0.dtd"
   xmlns:inkscape="http://www.inkscape.org/namespaces/inkscape"
   width="167.21666mm"
   height="268.02292mm"
   viewBox="0 0 167.21666 268.02292"
   version="1.1"
   id="svg8"
   sodipodi:docname="tpdlogo.svg"
   inkscape:export-filename="D:\OneDrive - On Message\Desktop\tpdlogo.png"
   inkscape:export-xdpi="96"
   inkscape:export-ydpi="96"
   inkscape:version="1.0.1 (3bc2e813f5, 2020-09-07)">
  <defs
     id="defs2" />
  <sodipodi:namedview
     id="base"
     pagecolor="#ffffff"
     bordercolor="#666666"
     borderopacity="1.0"
     inkscape:pageopacity="0.0"
     inkscape:pageshadow="2"
     inkscape:zoom="1"
     inkscape:cx="339.58702"
     inkscape:cy="302.2799"
     inkscape:document-units="mm"
     inkscape:current-layer="layer1"
     inkscape:document-rotation="0"
     showgrid="false"
     inkscape:window-width="1920"
     inkscape:window-height="1001"
     inkscape:window-x="-9"
     inkscape:window-y="-9"
     inkscape:window-maximized="1" />
  <metadata
     id="metadata5">
    <rdf:RDF>
      <cc:Work
         rdf:about="">
        <dc:format>image/svg+xml</dc:format>
        <dc:type
           rdf:resource="http://purl.org/dc/dcmitype/StillImage" />
      </cc:Work>
    </rdf:RDF>
  </metadata>
  <g
     inkscape:label="Layer 1"
     inkscape:groupmode="layer"
     id="layer1"
     transform="translate(-20.6375,-13.758333)">
    <path
       id="rect1920"
       style="fill:#ffffff;stroke-width:0.999999"
       d="M 78,52 V 1065 H 710 V 52 Z m 46.84375,22.175781 a 17,17 0 0 1 0.006,0 17,17 0 0 1 17,17 17,17 0 0 1 -17,16.999999 17,17 0 0 1 -17,-16.999999 17,17 0 0 1 16.99414,-17 z m 64,0 a 17,17 0 0 1 0.006,0 17,17 0 0 1 17,17 17,17 0 0 1 -17,16.999999 17,17 0 0 1 -17,-16.999999 17,17 0 0 1 16.99414,-17 z m 64,0 a 17,17 0 0 1 0.006,0 17,17 0 0 1 17,17 17,17 0 0 1 -17,16.999999 17,17 0 0 1 -17,-16.999999 17,17 0 0 1 16.99414,-17 z m 80,0 a 17,17 0 0 1 0.006,0 17,17 0 0 1 17,17 17,17 0 0 1 -17,16.999999 17,17 0 0 1 -17,-16.999999 17,17 0 0 1 16.99414,-17 z m 64,0 a 17,17 0 0 1 0.006,0 17,17 0 0 1 17,17 17,17 0 0 1 -17,16.999999 17,17 0 0 1 -17,-16.999999 17,17 0 0 1 16.99414,-17 z m 144,0 a 17,17 0 0 1 0.006,0 17,17 0 0 1 17,17 17,17 0 0 1 -17,16.999999 17,17 0 0 1 -17,-16.999999 17,17 0 0 1 16.99414,-17 z m 64,0 a 17,17 0 0 1 0.006,0 17,17 0 0 1 17,17 17,17 0 0 1 -17,16.999999 17,17 0 0 1 -17,-16.999999 17,17 0 0 1 16.99414,-17 z m 64,0 a 17,17 0 0 1 0.006,0 17,17 0 0 1 17,17 17,17 0 0 1 -17,16.999999 17,17 0 0 1 -17,-16.999999 17,17 0 0 1 16.99414,-17 z m -480,52.234379 a 17,17 0 0 1 0.006,0 17,17 0 0 1 17,17 17,17 0 0 1 -17,17 17,17 0 0 1 -17,-17 17,17 0 0 1 16.99414,-17 z m 144,0 a 17,17 0 0 1 0.006,0 17,17 0 0 1 17,17 17,17 0 0 1 -17,17 17,17 0 0 1 -17,-17 17,17 0 0 1 16.99414,-17 z m 128,0 a 17,17 0 0 1 0.006,0 17,17 0 0 1 17,17 17,17 0 0 1 -17,17 17,17 0 0 1 -17,-17 17,17 0 0 1 16.99414,-17 z m 80,0 a 17,17 0 0 1 0.006,0 17,17 0 0 1 17,17 17,17 0 0 1 -17,17 17,17 0 0 1 -17,-17 17,17 0 0 1 16.99414,-17 z m -352,52.23242 a 17,17 0 0 1 0.006,0 17,17 0 0 1 17,17 17,17 0 0 1 -17,17 17,17 0 0 1 -17,-17 17,17 0 0 1 16.99414,-17 z m 144,0 a 17,17 0 0 1 0.006,0 17,17 0 0 1 17,17 17,17 0 0 1 -17,17 17,17 0 0 1 -17,-17 17,17 0 0 1 16.99414,-17 z m 64,0 a 17,17 0 0 1 0.006,0 17,17 0 0 1 17,17 17,17 0 0 1 -17,17 17,17 0 0 1 -17,-17 17,17 0 0 1 16.99414,-17 z m 144,0 a 17,17 0 0 1 0.006,0 17,17 0 0 1 17,17 17,17 0 0 1 -17,17 17,17 0 0 1 -17,-17 17,17 0 0 1 16.99414,-17 z m 64,0 a 17,17 0 0 1 0.006,0 17,17 0 0 1 17,17 17,17 0 0 1 -17,17 17,17 0 0 1 -17,-17 17,17 0 0 1 16.99414,-17 z m -416,52.23437 a 17,17 0 0 1 0.006,0 17,17 0 0 1 17,17 17,17 0 0 1 -17,17 17,17 0 0 1 -17,-17 17,17 0 0 1 16.99414,-17 z m 144,0 a 17,17 0 0 1 0.006,0 17,17 0 0 1 17,17 17,17 0 0 1 -17,17 17,17 0 0 1 -17,-17 17,17 0 0 1 16.99414,-17 z m 128,0 a 17,17 0 0 1 0.006,0 17,17 0 0 1 17,17 17,17 0 0 1 -17,17 17,17 0 0 1 -17,-17 17,17 0 0 1 16.99414,-17 z m 80,0 a 17,17 0 0 1 0.006,0 17,17 0 0 1 17,17 17,17 0 0 1 -17,17 17,17 0 0 1 -17,-17 17,17 0 0 1 16.99414,-17 z m -352,52.23243 a 17,17 0 0 1 0.006,0 17,17 0 0 1 17,17 17,17 0 0 1 -17,17 17,17 0 0 1 -17,-17 17,17 0 0 1 16.99414,-17 z m 144,0 a 17,17 0 0 1 0.006,0 17,17 0 0 1 17,17 17,17 0 0 1 -17,17 17,17 0 0 1 -17,-17 17,17 0 0 1 16.99414,-17 z m 128,0 a 17,17 0 0 1 0.006,0 17,17 0 0 1 17,17 17,17 0 0 1 -17,17 17,17 0 0 1 -17,-17 17,17 0 0 1 16.99414,-17 z m 80,0 a 17,17 0 0 1 0.006,0 17,17 0 0 1 17,17 17,17 0 0 1 -17,17 17,17 0 0 1 -17,-17 17,17 0 0 1 16.99414,-17 z m -352,52.23437 a 17,17 0 0 1 0.006,0 17,17 0 0 1 17,17 17,17 0 0 1 -17,17 17,17 0 0 1 -17,-17 17,17 0 0 1 16.99414,-17 z m 144,0 a 17,17 0 0 1 0.006,0 17,17 0 0 1 17,17 17,17 0 0 1 -17,17 17,17 0 0 1 -17,-17 17,17 0 0 1 16.99414,-17 z m 128,0 a 17,17 0 0 1 0.006,0 17,17 0 0 1 17,17 17,17 0 0 1 -17,17 17,17 0 0 1 -17,-17 17,17 0 0 1 16.99414,-17 z m 80,0 a 17,17 0 0 1 0.006,0 17,17 0 0 1 17,17 17,17 0 0 1 -17,17 17,17 0 0 1 -17,-17 17,17 0 0 1 16.99414,-17 z m 64,0 a 17,17 0 0 1 0.006,0 17,17 0 0 1 17,17 17,17 0 0 1 -17,17 17,17 0 0 1 -17,-17 17,17 0 0 1 16.99414,-17 z m 64,0 a 17,17 0 0 1 0.006,0 17,17 0 0 1 17,17 17,17 0 0 1 -17,17 17,17 0 0 1 -17,-17 17,17 0 0 1 16.99414,-17 z m -544,78.33203 a 17,17 0 0 1 0.006,0 17,17 0 0 1 17,17 17,17 0 0 1 -17,17 17,17 0 0 1 -17,-17 17,17 0 0 1 16.99414,-17 z m 64,0 a 17,17 0 0 1 0.006,0 17,17 0 0 1 17,17 17,17 0 0 1 -17,17 17,17 0 0 1 -17,-17 17,17 0 0 1 16.99414,-17 z m 144,0 a 17,17 0 0 1 0.006,0 17,17 0 0 1 17,17 17,17 0 0 1 -17,17 17,17 0 0 1 -17,-17 17,17 0 0 1 16.99414,-17 z m 64,0 a 17,17 0 0 1 0.006,0 17,17 0 0 1 17,17 17,17 0 0 1 -17,17 17,17 0 0 1 -17,-17 17,17 0 0 1 16.99414,-17 z m 64,0 a 17,17 0 0 1 0.006,0 17,17 0 0 1 17,17 17,17 0 0 1 -17,17 17,17 0 0 1 -17,-17 17,17 0 0 1 16.99414,-17 z m 80,0 a 17,17 0 0 1 0.006,0 17,17 0 0 1 17,17 17,17 0 0 1 -17,17 17,17 0 0 1 -17,-17 17,17 0 0 1 16.99414,-17 z m 64,0 a 17,17 0 0 1 0.006,0 17,17 0 0 1 17,17 17,17 0 0 1 -17,17 17,17 0 0 1 -17,-17 17,17 0 0 1 16.99414,-17 z m -480,52.23438 a 17,17 0 0 1 0.006,0 17,17 0 0 1 17,17 17,17 0 0 1 -17,17 17,17 0 0 1 -17,-17 17,17 0 0 1 16.99414,-17 z m 128,0 a 17,17 0 0 1 0.006,0 17,17 0 0 1 17,17 17,17 0 0 1 -17,17 17,17 0 0 1 -17,-17 17,17 0 0 1 16.99414,-17 z m 80,0 a 17,17 0 0 1 0.006,0 17,17 0 0 1 17,17 17,17 0 0 1 -17,17 17,17 0 0 1 -17,-17 17,17 0 0 1 16.99414,-17 z m 208,0 a 17,17 0 0 1 0.006,0 17,17 0 0 1 17,17 17,17 0 0 1 -17,17 17,17 0 0 1 -17,-17 17,17 0 0 1 16.99414,-17 z m 128,0 a 17,17 0 0 1 0.006,0 17,17 0 0 1 17,17 17,17 0 0 1 -17,17 17,17 0 0 1 -17,-17 17,17 0 0 1 16.99414,-17 z m -544,52.23242 a 17,17 0 0 1 0.006,0 17,17 0 0 1 17,17 17,17 0 0 1 -17,17 17,17 0 0 1 -17,-17 17,17 0 0 1 16.99414,-17 z m 64,0 a 17,17 0 0 1 0.006,0 17,17 0 0 1 17,17 17,17 0 0 1 -17,17 17,17 0 0 1 -17,-17 17,17 0 0 1 16.99414,-17 z m 144,0 a 17,17 0 0 1 0.006,0 17,17 0 0 1 17,17 17,17 0 0 1 -17,17 17,17 0 0 1 -17,-17 17,17 0 0 1 16.99414,-17 z m 64,0 a 17,17 0 0 1 0.006,0 17,17 0 0 1 17,17 17,17 0 0 1 -17,17 17,17 0 0 1 -17,-17 17,17 0 0 1 16.99414,-17 z m 144,0 a 17,17 0 0 1 0.006,0 17,17 0 0 1 17,17 17,17 0 0 1 -17,17 17,17 0 0 1 -17,-17 17,17 0 0 1 16.99414,-17 z m 64,0 a 17,17 0 0 1 0.006,0 17,17 0 0 1 17,17 17,17 0 0 1 -17,17 17,17 0 0 1 -17,-17 17,17 0 0 1 16.99414,-17 z m -480,52.23437 a 17,17 0 0 1 0.006,0 17,17 0 0 1 17,17 17,17 0 0 1 -17,17 17,17 0 0 1 -17,-17 17,17 0 0 1 16.99414,-17 z m 208,0 a 17,17 0 0 1 0.006,0 17,17 0 0 1 17,17 17,17 0 0 1 -17,17 17,17 0 0 1 -17,-17 17,17 0 0 1 16.99414,-17 z m 208,0 a 17,17 0 0 1 0.006,0 17,17 0 0 1 17,17 17,17 0 0 1 -17,17 17,17 0 0 1 -17,-17 17,17 0 0 1 16.99414,-17 z m 128,0 a 17,17 0 0 1 0.006,0 17,17 0 0 1 17,17 17,17 0 0 1 -17,17 17,17 0 0 1 -17,-17 17,17 0 0 1 16.99414,-17 z m -544,52.23243 a 17,17 0 0 1 0.006,0 17,17 0 0 1 17,17 17,17 0 0 1 -17,17 17,17 0 0 1 -17,-17 17,17 0 0 1 16.99414,-17 z m 208,0 a 17,17 0 0 1 0.006,0 17,17 0 0 1 17,17 17,17 0 0 1 -17,17 17,17 0 0 1 -17,-17 17,17 0 0 1 16.99414,-17 z m 208,0 a 17,17 0 0 1 0.006,0 17,17 0 0 1 17,17 17,17 0 0 1 -17,17 17,17 0 0 1 -17,-17 17,17 0 0 1 16.99414,-17 z m 128,0 a 17,17 0 0 1 0.006,0 17,17 0 0 1 17,17 17,17 0 0 1 -17,17 17,17 0 0 1 -17,-17 17,17 0 0 1 16.99414,-17 z m -544,52.23437 a 17,17 0 0 1 0.006,0 17,17 0 0 1 17,17 17,17 0 0 1 -17,17 17,17 0 0 1 -17,-17 17,17 0 0 1 16.99414,-17 z m 208,0 a 17,17 0 0 1 0.006,0 17,17 0 0 1 17,17 17,17 0 0 1 -17,17 17,17 0 0 1 -17,-17 17,17 0 0 1 16.99414,-17 z m 64,0 a 17,17 0 0 1 0.006,0 17,17 0 0 1 17,17 17,17 0 0 1 -17,17 17,17 0 0 1 -17,-17 17,17 0 0 1 16.99414,-17 z m 64,0 a 17,17 0 0 1 0.006,0 17,17 0 0 1 17,17 17,17 0 0 1 -17,17 17,17 0 0 1 -17,-17 17,17 0 0 1 16.99414,-17 z m 80,0 a 17,17 0 0 1 0.006,0 17,17 0 0 1 17,17 17,17 0 0 1 -17,17 17,17 0 0 1 -17,-17 17,17 0 0 1 16.99414,-17 z m 128,0 a 17,17 0 0 1 0.006,0 17,17 0 0 1 17,17 17,17 0 0 1 -17,17 17,17 0 0 1 -17,-17 17,17 0 0 1 16.99414,-17 z m -544,78.33203 a 17,17 0 0 1 0.006,0 17,17 0 0 1 17,17 17,17 0 0 1 -17,17 17,17 0 0 1 -17,-17 17,17 0 0 1 16.99414,-17 z m 64,0 a 17,17 0 0 1 0.006,0 17,17 0 0 1 17,17 17,17 0 0 1 -17,17 17,17 0 0 1 -17,-17 17,17 0 0 1 16.99414,-17 z m 208,0 a 17,17 0 0 1 0.006,0 17,17 0 0 1 17,17 17,17 0 0 1 -17,17 17,17 0 0 1 -17,-17 17,17 0 0 1 16.99414,-17 z m 144,0 a 17,17 0 0 1 0.006,0 17,17 0 0 1 17,17 17,17 0 0 1 -17,17 17,17 0 0 1 -17,-17 17,17 0 0 1 16.99414,-17 z m 128,0 a 17,17 0 0 1 0.006,0 17,17 0 0 1 17,17 17,17 0 0 1 -17,17 17,17 0 0 1 -17,-17 17,17 0 0 1 16.99414,-17 z m -544,52.23438 a 17,17 0 0 1 0.006,0 17,17 0 0 1 17,17 17,17 0 0 1 -17,17 17,17 0 0 1 -17,-17 17,17 0 0 1 16.99414,-17 z m 128,0 a 17,17 0 0 1 0.006,0 17,17 0 0 1 17,17 17,17 0 0 1 -17,17 17,17 0 0 1 -17,-17 17,17 0 0 1 16.99414,-17 z m 80,0 a 17,17 0 0 1 0.006,0 17,17 0 0 1 17,17 17,17 0 0 1 -17,17 17,17 0 0 1 -17,-17 17,17 0 0 1 16.99414,-17 z m 128,0 a 17,17 0 0 1 0.006,0 17,17 0 0 1 17,17 17,17 0 0 1 -17,17 17,17 0 0 1 -17,-17 17,17 0 0 1 16.99414,-17 z m 80,0 a 17,17 0 0 1 0.006,0 17,17 0 0 1 17,17 17,17 0 0 1 -17,17 17,17 0 0 1 -17,-17 17,17 0 0 1 16.99414,-17 z m 128,0 a 17,17 0 0 1 0.006,0 17,17 0 0 1 17,17 17,17 0 0 1 -17,17 17,17 0 0 1 -17,-17 17,17 0 0 1 16.99414,-17 z m -544,52.23242 a 17,17 0 0 1 0.006,0 17,17 0 0 1 17,17 17,17 0 0 1 -17,17 17,17 0 0 1 -17,-17 17,17 0 0 1 16.99414,-17 z m 128,0 a 17,17 0 0 1 0.006,0 17,17 0 0 1 17,17 17,17 0 0 1 -17,17 17,17 0 0 1 -17,-17 17,17 0 0 1 16.99414,-17 z m 80,0 a 17,17 0 0 1 0.006,0 17,17 0 0 1 17,17 17,17 0 0 1 -17,17 17,17 0 0 1 -17,-17 17,17 0 0 1 16.99414,-17 z m 64,0 a 17,17 0 0 1 0.006,0 17,17 0 0 1 17,17 17,17 0 0 1 -17,17 17,17 0 0 1 -17,-17 17,17 0 0 1 16.99414,-17 z m 64,0 a 17,17 0 0 1 0.006,0 17,17 0 0 1 17,17 17,17 0 0 1 -17,17 17,17 0 0 1 -17,-17 17,17 0 0 1 16.99414,-17 z m 144,0 a 17,17 0 0 1 0.006,0 17,17 0 0 1 17,17 17,17 0 0 1 -17,17 17,17 0 0 1 -17,-17 17,17 0 0 1 16.99414,-17 z m -480,52.23437 a 17,17 0 0 1 0.006,0 17,17 0 0 1 17,17 17,17 0 0 1 -17,17 17,17 0 0 1 -17,-17 17,17 0 0 1 16.99414,-17 z m 128,0 a 17,17 0 0 1 0.006,0 17,17 0 0 1 17,17 17,17 0 0 1 -17,17 17,17 0 0 1 -17,-17 17,17 0 0 1 16.99414,-17 z m 80,0 a 17,17 0 0 1 0.006,0 17,17 0 0 1 17,17 17,17 0 0 1 -17,17 17,17 0 0 1 -17,-17 17,17 0 0 1 16.99414,-17 z m 128,0 a 17,17 0 0 1 0.006,0 17,17 0 0 1 17,17 17,17 0 0 1 -17,17 17,17 0 0 1 -17,-17 17,17 0 0 1 16.99414,-17 z m 144,0 a 17,17 0 0 1 0.006,0 17,17 0 0 1 17,17 17,17 0 0 1 -17,17 17,17 0 0 1 -17,-17 17,17 0 0 1 16.99414,-17 z m -480,52.23243 a 17,17 0 0 1 0.006,0 17,17 0 0 1 17,17 17,17 0 0 1 -17,17 17,17 0 0 1 -17,-17 17,17 0 0 1 16.99414,-17 z m 128,0 a 17,17 0 0 1 0.006,0 17,17 0 0 1 17,17 17,17 0 0 1 -17,17 17,17 0 0 1 -17,-17 17,17 0 0 1 16.99414,-17 z m 80,0 a 17,17 0 0 1 0.006,0 17,17 0 0 1 17,17 17,17 0 0 1 -17,17 17,17 0 0 1 -17,-17 17,17 0 0 1 16.99414,-17 z m 128,0 a 17,17 0 0 1 0.006,0 17,17 0 0 1 17,17 17,17 0 0 1 -17,17 17,17 0 0 1 -17,-17 17,17 0 0 1 16.99414,-17 z m 144,0 a 17,17 0 0 1 0.006,0 17,17 0 0 1 17,17 17,17 0 0 1 -17,17 17,17 0 0 1 -17,-17 17,17 0 0 1 16.99414,-17 z m -480,52.23442 a 17,17 0 0 1 0.006,0 17,17 0 0 1 17,17 17,17 0 0 1 -17,17 17,17 0 0 1 -17,-17 17,17 0 0 1 16.99414,-17 z m 64,0 a 17,17 0 0 1 0.006,0 17,17 0 0 1 17,17 17,17 0 0 1 -17,17 17,17 0 0 1 -17,-17 17,17 0 0 1 16.99414,-17 z m 144,0 a 17,17 0 0 1 0.006,0 17,17 0 0 1 17,17 17,17 0 0 1 -17,17 17,17 0 0 1 -17,-17 17,17 0 0 1 16.99414,-17 z m 128,0 a 17,17 0 0 1 0.006,0 17,17 0 0 1 17,17 17,17 0 0 1 -17,17 17,17 0 0 1 -17,-17 17,17 0 0 1 16.99414,-17 z m 144,0 a 17,17 0 0 1 0.006,0 17,17 0 0 1 17,17 17,17 0 0 1 -17,17 17,17 0 0 1 -17,-17 17,17 0 0 1 16.99414,-17 z"
       transform="scale(0.26458333)" />
  </g>
</svg>
